<?xml version="1.0" standalone="no"?>
<!DOCTYPE svg PUBLIC "-//W3C//DTD SVG 20010904//EN"
 "http://www.w3.org/TR/2001/REC-SVG-20010904/DTD/svg10.dtd">
<svg version="1.0" xmlns="http://www.w3.org/2000/svg"
 width="399.000000pt" height="399.000000pt" viewBox="0 0 399.000000 399.000000"
 preserveAspectRatio="xMidYMid meet">
<metadata>
Created by potrace 1.14, written by Peter Selinger 2001-2017
</metadata>
<g transform="translate(0.000000,399.000000) scale(0.100000,-0.100000)"
fill="#000000" stroke="none">
<path d="M1826 3968 c-396 -34 -797 -201 -1101 -458 -366 -310 -592 -707 -681
-1195 -29 -157 -26 -498 5 -670 213 -1191 1442 -1920 2582 -1529 607 208 1056
660 1253 1264 70 213 91 353 91 610 0 226 -9 304 -51 475 -143 574 -528 1051
-1059 1310 -230 112 -464 175 -725 195 -150 11 -172 11 -314 -2z m657 -375
c16 -3 39 0 52 7 18 10 31 10 52 2 15 -5 49 -15 76 -21 107 -25 137 -34 137
-42 0 -5 10 -9 23 -9 12 -1 38 -9 57 -20 19 -10 54 -28 77 -39 23 -12 45 -25
48 -31 3 -5 14 -10 25 -10 10 0 20 -6 23 -14 3 -8 16 -16 29 -18 13 -2 27 -13
32 -24 5 -12 29 -34 53 -50 23 -16 43 -35 43 -43 0 -9 8 -11 28 -7 19 5 23 4
13 -3 -12 -8 -13 -12 -1 -26 7 -8 18 -14 24 -12 11 4 86 -100 86 -119 0 -6 11
-21 25 -34 14 -13 25 -29 25 -37 0 -7 6 -13 13 -13 6 0 13 -10 14 -22 3 -46 9
-62 31 -84 12 -13 22 -28 22 -34 0 -6 7 -18 15 -26 8 -9 15 -22 15 -31 0 -10
-10 -3 -28 18 -22 28 -84 88 -180 177 -21 19 -37 14 -19 -6 10 -10 17 -26 17
-36 0 -9 4 -15 8 -12 5 3 9 -13 10 -35 1 -22 6 -49 12 -59 23 -42 4 -115 -40
-155 -26 -24 -212 -25 -258 -1 -17 9 -42 16 -57 16 -14 0 -25 3 -25 8 0 4 -22
17 -50 30 -27 13 -50 26 -50 30 0 4 -25 33 -54 64 -80 85 -135 192 -142 276
-2 31 -6 73 -9 92 -4 29 0 41 25 68 18 19 39 32 54 32 14 0 28 5 32 11 3 6 18
8 33 5 14 -4 -8 11 -50 32 -86 44 -270 107 -341 117 -54 7 -70 21 -37 34 l23
8 -22 12 c-27 14 -21 31 8 24 14 -4 20 0 20 12 0 14 5 16 28 11 15 -4 40 -10
55 -13z m-155 -60 c-10 -2 -26 -2 -35 0 -10 3 -2 5 17 5 19 0 27 -2 18 -5z
m925 -185 c12 -6 38 -26 57 -45 19 -18 38 -33 43 -33 4 0 7 -8 7 -18 0 -10 5
-23 12 -30 9 -9 9 -12 -1 -12 -11 0 -49 36 -130 124 -26 28 -22 33 12 14z
m-2061 -1783 c4 -5 35 -46 68 -91 99 -135 238 -251 383 -319 32 -15 44 -24 32
-25 -12 0 -26 -5 -31 -10 -14 -14 -160 58 -233 115 -61 47 -130 117 -178 180
-37 48 -97 165 -89 173 3 3 6 0 6 -6 0 -19 20 -14 21 6 0 13 2 14 6 2 3 -8 10
-19 15 -25z m483 -455 c-3 -5 -11 -10 -16 -10 -6 0 -7 5 -4 10 3 6 11 10 16
10 6 0 7 -4 4 -10z m-635 -90 c0 -5 -2 -10 -4 -10 -3 0 -8 5 -11 10 -3 6 -1
10 4 10 6 0 11 -4 11 -10z"/>
<path d="M1625 1140 c3 -5 11 -10 16 -10 6 0 7 5 4 10 -3 6 -11 10 -16 10 -6
0 -7 -4 -4 -10z"/>
</g>
</svg>
